# xmcd
#
# Track frame offsets:
#	150
#	18732
#	25507
#	46399
#
# Disc length: 997 seconds
#
# Revision: 0
# Processed by: cddbd v1.5.2PL0 Copyright (c) Steve Scherf et al.
# Submitted via: dBpowerAMP V4.0
#
DISCID=2703e304
DTITLE=Bearsuit - Steven F***ing Spielberg
DYEAR=2006
DGENRE=Pop
TTITLE0=Steven F***ing Spielberg
TTITLE1=Shhh Get Out
TTITLE2=xxvvv xxvvv
TTITLE3=DATA
EXTD=
EXTT0=
EXTT1=
EXTT2=
EXTT3=
PLAYORDER=
